<?xml version="1.0" encoding="UTF-8"?>
<svg width="192px" height="40px" viewBox="0 0 192 40" version="1.1" xmlns="http://www.w3.org/2000/svg" xmlns:xlink="http://www.w3.org/1999/xlink">
    <!-- Generator: Sketch 42 (36781) - http://www.bohemiancoding.com/sketch -->
    <title>Group</title>
    <desc>Created with Sketch.</desc>
    <defs></defs>
    <g id="Landing-Page" stroke="none" stroke-width="1" fill="none" fill-rule="evenodd">
        <g id="Desktop-Landscape-Copy-4" transform="translate(-132.000000, -31.000000)" fill="#FFFFFF">
            <g id="Group" transform="translate(132.000000, 31.000000)">
                <path d="M39.0223561,32.001808 C39.0295155,32.276798 38.9302648,32.5414205 38.7465236,32.7374894 C34.6212083,37.1414129 29.0478221,39.5951953 23.0532092,39.6468379 C17.0586768,39.6984798 11.3601275,37.3417203 7.00740127,33.0109168 C2.65484041,28.6802778 0.169098988,22.8936631 0.00830645613,16.7177116 L0.00828917845,16.717048 C-0.152516311,10.5405989 2.0309463,4.71375971 6.15602003,0.309838344 C6.5385441,-0.0984426012 7.17572584,-0.103931818 7.57933299,0.297576735 L11.0769729,3.77756893 C11.1169061,3.81738328 11.1521711,3.86039078 11.1845722,3.90475051 C11.1867195,3.9068063 11.1891824,3.90861047 11.1911687,3.91066765 L35.0780236,27.6779407 C35.0803384,27.680244 35.0823377,27.6827989 35.084572,27.6851029 C35.1284845,27.7169176 35.1712607,27.7514803 35.2110264,27.7910471 L38.7085053,31.2710407 C38.9023733,31.4639396 39.0151966,31.7268181 39.0223561,32.001808 Z M13.733609,27.3377692 C16.5833283,29.8725688 20.0532439,31.3597332 23.6169041,31.5572884 L21.7535581,18.7758468 L13.733609,27.3377692 Z M12.2727392,25.8827484 L20.2701268,17.3450822 L7.83535876,15.8784788 C8.15609066,19.493454 9.73384803,23.0501403 12.2727392,25.8827484 Z M23.8731608,19.3859325 L25.6431787,31.5273866 C28.4187133,31.2839323 30.9366023,30.2074201 32.9327144,28.4003553 L23.8731608,19.3859325 Z M19.6555222,15.1895412 L10.5668677,6.14616308 C8.8923753,8.26168453 7.92961508,10.9152868 7.7913786,13.7902075 L19.6555222,15.1895412 Z M2.02128324,16.6997894 C2.16750516,22.3222782 4.43011096,27.5898344 8.39253921,31.5323738 C12.3549664,35.4748296 17.542432,37.6200163 22.9993013,37.5731722 C28.119621,37.5290615 32.9020861,35.5600105 36.5750248,32.0054673 L34.4074207,29.8486192 C31.5629171,32.4910517 27.7928583,33.8309174 23.6809381,33.636343 C19.2593153,33.4270955 14.9679332,31.4648585 11.5973573,28.1111335 C8.01670721,24.5483037 5.89112755,19.7432132 5.76572186,14.9264505 C5.66542736,11.0618223 6.84780889,7.46219143 9.110481,4.6777452 L6.94263538,2.52089913 C3.6250228,6.42891128 1.88393219,11.4242124 2.02128324,16.6997894 Z" id="orange-pos-copy-2"></path>
                <text id="Slice-Capital" font-family="ProximaNova-Regular, Proxima Nova" font-size="24" font-weight="normal" letter-spacing="0.112500004">
                    <tspan x="62" y="26">Slice Capital</tspan>
                </text>
            </g>
        </g>
    </g>
</svg>